<?xml version="1.0" encoding="UTF-8"?>
<svg id="Layer_1" data-name="Layer 1" xmlns="http://www.w3.org/2000/svg" viewBox="0 0 64 64">
  <defs>
    <style>
      .cls-1 {
        fill: #3c87fc;
      }

      .cls-2 {
        fill: #235af4;
      }
    </style>
  </defs>
  <path class="cls-1" d="M7.71,19.22l12.35,22.54c.97,1.77,2.82,2.87,4.84,2.88l25.14,.13-6.32,10.09c-.77,1.22-2.12,1.96-3.56,1.94l-23.35-.34c-1.67-.02-3.19-.94-3.99-2.4L1.59,33.56c-.58-1.05-.57-2.33,.01-3.38l6.11-10.96Z"/>
  <path class="cls-2" d="M62.65,42.7L44.94,10.4c-.83-1.51-2.4-2.46-4.12-2.49L3.95,7.21c-1.37-.03-2.25,1.45-1.57,2.64l5.33,9.38,12.12,.41c1.32,.04,2.51,.78,3.15,1.94l4.94,9.01c.41,.75,1.19,1.22,2.05,1.23l10.71,.17c1.48,.02,2.83,.84,3.53,2.13l5.84,10.66,11.21,.24c1.2,.03,1.97-1.25,1.4-2.3Z"/>
</svg>