<?xml version="1.0" encoding="UTF-8"?>
<svg id="Layer_1" data-name="Layer 1" xmlns="http://www.w3.org/2000/svg" viewBox="0 0 350 75">
  <defs>
    <style>
      .cls-1 {
        fill: #3c87fc;
      }

      .cls-2 {
        fill: #01096b;
      }

      .cls-3 {
        fill: #235af4;
      }
    </style>
  </defs>
  <g>
    <path class="cls-2" d="M212.68,44c1.03-7.44,2.03-14.57,2.99-21.37,8.91,0,17.8-.63,26.54,.19,7.66,.72,12.52,6.64,12.32,14.45-.21,8.11-1.58,16.2-2.48,24.29-.24,2.13-.63,4.25-.95,6.37h-14.05c.92-6.58,1.81-12.97,2.7-19.36,.15-1.07,.34-2.13,.44-3.21,.88-9.56-2.06-12.5-11.95-11.61-1.61,11.28-3.23,22.64-4.87,34.16h-14.14c1.16-7.99,2.29-15.79,3.46-23.91Z"/>
    <path class="cls-2" d="M169.43,21.91h5.29c-2.2,15.51-4.35,30.67-6.46,45.61-8.71,0-17.24,.65-25.62-.18-8.79-.88-13.82-6.93-13.4-15.81,.41-8.72,2-17.38,3.08-26.06,.13-1.07,.33-2.14,.52-3.38h14.07c-1.02,7.13-2.01,14.1-3.01,21.07-.08,.59-.24,1.18-.31,1.77-1.12,9.65,1.96,12.66,12.06,11.54,1.64-11.41,3.3-22.88,4.98-34.56h8.81Z"/>
    <path class="cls-2" d="M307.21,35.39c-4.69,4.2-5.49,9.46-4.81,14.99,.47,3.85,3.15,6.09,7.21,6.23,5.62,.18,11.24,.05,17.38,.05-.5,3.97-.96,7.58-1.4,11.06-7.25,0-14.27,.72-21.08-.16-11.57-1.5-17.56-10.35-15.88-21.93,2.13-14.7,12.16-23.53,26.96-23.7,5.03-.06,10.05,0,15.43,0-.56,3.87-1.08,7.47-1.66,11.44-4.84,0-9.64-.2-14.4,.08-2.55,.15-5.04,1.16-7.77,1.96Z"/>
    <path class="cls-2" d="M113.88,6.27c2.12,0,3.89,0,5.96,0-1.12,8.22-2.17,16.04-3.26,23.86-.76,5.46-1.5,10.92-2.37,16.37-1.26,7.87-.69,8.7,7.41,9.7-.5,3.84-1,7.69-1.62,12.53-4.73-1-9.36-1.5-13.64-3-4.42-1.54-7.01-5.37-6.79-10.06,.35-7.4,1.21-14.78,2.12-22.14,1.11-9.01,2.49-18,3.8-27.26,2.82,0,5.44,0,8.41,0Z"/>
    <path class="cls-2" d="M193.31,22.58c4.93-1.95,9.64-1.63,14.72-.49-.51,3.72-1,7.35-1.48,10.88-8.33-.13-8.71,.93-10.03,9.39-1.31,8.41-2.39,16.85-3.61,25.49h-14.14c1.74-10.98,3.25-21.79,5.23-32.51,1-5.45,3.66-10.16,9.32-12.77Z"/>
    <path class="cls-2" d="M282.55,21.91c-2.2,15.48-4.34,30.63-6.52,45.97h-14.04c2.17-15.29,4.32-30.43,6.52-45.97"/>
    <path class="cls-2" d="M270.89,6.89c4.73-.11,9.16-.11,13.97-.11-.49,3.47-.95,6.7-1.4,9.91h-14.43c1.92-10.11-.84,4.58,1.85-9.8Z"/>
  </g>
  <g>
    <path class="cls-1" d="M11.03,18.8L29.11,51.79c1.42,2.59,4.13,4.2,7.08,4.22l36.81,.18-9.25,14.77c-1.12,1.79-3.1,2.86-5.21,2.83l-34.18-.49c-2.44-.04-4.67-1.38-5.84-3.52L2.07,39.79c-.85-1.54-.84-3.41,.02-4.95L11.03,18.8Z"/>
    <path class="cls-3" d="M91.45,53.17L65.53,5.88c-1.21-2.21-3.51-3.6-6.02-3.65L5.52,1.21c-2-.04-3.29,2.12-2.3,3.86l7.8,13.72,17.74,.6c1.93,.07,3.68,1.14,4.6,2.83l7.23,13.18c.6,1.1,1.74,1.79,2.99,1.81l15.68,.25c2.16,.03,4.14,1.23,5.17,3.12l8.55,15.6,16.4,.35c1.75,.04,2.89-1.83,2.05-3.37Z"/>
  </g>
</svg>