<?xml version="1.0" encoding="utf-8"?>
<!-- Generator: Adobe Illustrator 27.0.0, SVG Export Plug-In . SVG Version: 6.00 Build 0)  -->
<svg version="1.1" id="Layer_1" xmlns="http://www.w3.org/2000/svg" xmlns:xlink="http://www.w3.org/1999/xlink" x="0px" y="0px"
	 viewBox="0 0 64 64" style="enable-background:new 0 0 64 64;" xml:space="preserve">
<style type="text/css">
	.st0{fill:#235AF4;}
	.st1{fill:#3C87FC;}
</style>
<g>
	<path class="st0" d="M36.03,59H8.73c-0.49,0-0.75-0.58-0.42-0.95l6.59-7.37c0.47-0.52,1.14-0.83,1.84-0.83l14.56-0.11
		c1.1-0.01,2.15-0.45,2.91-1.23l15.23-15.45c0.52-0.53,0.52-1.38-0.01-1.91L33.89,15.71c-0.79-0.78-1.86-1.22-2.97-1.2L17.19,14.7
		c-0.72,0.01-1.4-0.29-1.89-0.82L8.32,6.16C7.99,5.79,8.25,5.21,8.74,5.21h27.28c15.28,0,27.67,12.04,27.67,26.9v0
		C63.7,46.96,51.31,59,36.03,59z"/>
	<g>
		<path class="st1" d="M29.09,24.38H3.22c-1.47,0-2.65-1.19-2.65-2.65v0c0-1.47,1.19-2.65,2.65-2.65h25.87
			c1.47,0,2.65,1.19,2.65,2.65v0C31.74,23.19,30.55,24.38,29.09,24.38z"/>
		<path class="st1" d="M31.13,34.76H11.91c-1.47,0-2.65-1.19-2.65-2.65v0c0-1.47,1.19-2.65,2.65-2.65h19.22
			c1.47,0,2.65,1.19,2.65,2.65v0C33.78,33.57,32.6,34.76,31.13,34.76z"/>
		<path class="st1" d="M29.09,45.15H3.47c-1.47,0-2.65-1.19-2.65-2.65v0c0-1.47,1.19-2.65,2.65-2.65h25.61
			c1.47,0,2.65,1.19,2.65,2.65v0C31.74,43.96,30.55,45.15,29.09,45.15z"/>
	</g>
</g>
</svg>
